<?xml version="1.0" encoding="utf-8"?>
<!-- Generator: Adobe Illustrator 24.0.3, SVG Export Plug-In . SVG Version: 6.00 Build 0)  -->
<svg version="1.1" id="Layer_1" xmlns="http://www.w3.org/2000/svg" xmlns:xlink="http://www.w3.org/1999/xlink" x="0px" y="0px"
	 viewBox="0 0 71 70.5" style="enable-background:new 0 0 71 70.5;" xml:space="preserve">
<g>
	<path d="M0.8,69.7c0-23.3,0-46.5,0-69.8c23.2,0,46.4,0,69.6,0c0,23.2,0,46.5,0,69.8C47.2,69.7,24,69.7,0.8,69.7z M6.6,63.8
		c19.4,0,38.6,0,57.9,0c0-19.4,0-38.8,0-58.2c-19.4,0-38.6,0-57.9,0C6.6,25.1,6.6,44.4,6.6,63.8z"/>
	<path d="M34.8,50.7c-8.7,0-15.7-7-15.7-15.6c0-8.8,7.1-15.7,15.9-15.7c8.1,0.1,15.3,6.4,15.5,15.5C50.7,43.7,43.6,50.7,34.8,50.7z
		 M45,34.7c0.1-3.2-1.2-5.5-3.9-7.2c-2-1.3-4.3-1.6-6.6-1.7c-3.6,0-7.6,3.1-8.5,6.5c-0.9,3.3,0.2,8.3,3.9,10.2
		c1.1,0.6,2.4,0.9,3.6,1.2C40,45.4,45.2,40.1,45,34.7z"/>
	<path d="M52.3,15.8c2,0,3.6,1.6,3.7,3.6c0,2-1.7,3.7-3.6,3.7c-2,0-3.6-1.6-3.6-3.6C48.7,17.4,50.3,15.8,52.3,15.8z"/>
</g>
</svg>
