<?xml version="1.0" encoding="utf-8"?>
<!-- Generator: Adobe Illustrator 24.0.3, SVG Export Plug-In . SVG Version: 6.00 Build 0)  -->
<svg version="1.1" id="Layer_1" xmlns="http://www.w3.org/2000/svg" xmlns:xlink="http://www.w3.org/1999/xlink" x="0px" y="0px"
	 viewBox="0 0 508 505" style="enable-background:new 0 0 508 505;" xml:space="preserve">
<g>
	<path d="M1,504.9C1,366.7,1,228.6,1,90.3c18.8,5.8,37.4,11.6,56.1,17.5c0,81.9,0,163.8,0,246.1c3.1-2,5.8-3.8,8.5-5.6
		c6.3-4.2,12.6-8.4,18.9-12.6c5.8-3.9,11.6-7.8,17.5-11.7c6-4,12-7.9,18-11.9c7.2-4.8,14.4-9.6,21.5-14.3
		c7.8-5.2,15.6-10.4,23.4-15.5c1.6-1.1,2.3-2.2,2.3-4.2c-0.1-73.4,0-146.8,0-220.2c0-0.9,0-1.7,0-2.9c-1.1,0-1.9,0-2.8,0
		c-22.9,0-45.8-0.1-68.6,0.1c-4.8,0-9.3-0.7-13.8-2.2c-21.7-6.8-43.4-13.6-65.1-20.3c-4.9-1.5-9.8-3-14.6-4.5
		c-0.4-0.1-0.9-0.4-1.3-0.5c0-9.5,0-18.9,0-28.5c168.8,0,337.5,0,506.3,0c0,129.9,0,259.7,0,389.7c-18.6,0-37.1,0-55.6,0
		c-0.5-1.8-0.6-128.2-0.4-166.6c0.2-55.6,0-111.1,0-166.8c-27.7,0-55.2,0-82.6,0c0,131.2,0,262.3,0,393.7
		c46.3,0.3,92.4-0.2,138.6-0.1c0,18.8,0,37.4,0,56.2C338.5,504.9,169.9,504.9,1,504.9z M57.2,448.7c83.9,0,167.6,0,251.3,0
		c0-131.3,0-262.5,0-393.7c-27.1,0-54.1,0-81.3,0c0,86,0,171.8,0,257.6c-56.8,37.8-113.5,75.6-170.1,113.2
		C57.2,433.5,57.2,441,57.2,448.7z"/>
</g>
</svg>
