<?xml version="1.0" encoding="utf-8"?>
<!-- Generator: Adobe Illustrator 24.0.3, SVG Export Plug-In . SVG Version: 6.00 Build 0)  -->
<svg version="1.1" id="Layer_1" xmlns="http://www.w3.org/2000/svg" xmlns:xlink="http://www.w3.org/1999/xlink" x="0px" y="0px"
	 viewBox="0 0 82.6 84.2" style="enable-background:new 0 0 82.6 84.2;" xml:space="preserve">
<g>
	<path d="M76.8,42.1c0,11.1,0,22.2,0,33.4c0,1.6,0,1.6-1.6,1.6c-22.2,0-44.5,0-66.7,0c-1.6,0-1.6,0-1.6-1.6c0-22.3,0-44.7,0-67
		c0-1.6,0-1.6,1.6-1.6c22.2,0,44.5,0,66.7,0c1.6,0,1.6,0,1.6,1.6C76.8,19.7,76.8,30.9,76.8,42.1z M18.1,65c0.1,0.2,0.1,0.4,0.2,0.5
		c3.3,0,6.6,0,9.9,0c6.8,0.1,13.3-1.5,19.4-4.5C60.3,55,63.8,44.4,62.8,32.8c-0.2-2-0.2-2.2,1.6-3.1c1.2-0.7,2.4-1.4,3.6-2.1
		c-2.4-0.9-4.6-1.5-6.9-2.2c-0.9-0.3-1.8-0.7-2.5-1.3c-2-1.7-4.2-2.9-6.9-3c-6-0.2-10.7,3.5-12,9.6c-0.6,2.9-0.4,3.2,2.2,4.5
		c0.1,0.1,0.2,0.1,0.3,0.2c1.6,0.9,3.2,1.9,4.8,2.8C36.1,35.7,26.2,30.7,15.7,27c2.2,13.5,10.5,22,22.2,28.2c-2.7,0.2-5-0.2-7.1-1.2
		c-0.6-0.3-1-0.3-1.5,0.2c-3.4,3.3-6.8,6.5-10.2,9.7C18.7,64.3,18.4,64.7,18.1,65z"/>
</g>
</svg>
